<?xml version="1.0" encoding="UTF-8" standalone="no"?>
<!-- Generator: Adobe Illustrator 19.0.0, SVG Export Plug-In . SVG Version: 6.00 Build 0)  -->

<svg
   xmlns:dc="http://purl.org/dc/elements/1.1/"
   xmlns:cc="http://creativecommons.org/ns#"
   xmlns:rdf="http://www.w3.org/1999/02/22-rdf-syntax-ns#"
   xmlns:svg="http://www.w3.org/2000/svg"
   xmlns="http://www.w3.org/2000/svg"
   xmlns:sodipodi="http://sodipodi.sourceforge.net/DTD/sodipodi-0.dtd"
   xmlns:inkscape="http://www.inkscape.org/namespaces/inkscape"
   version="1.1"
   id="Layer_1"
   x="0px"
   y="0px"
   viewBox="0 0 503.605 503.605"
   style="enable-background:new 0 0 503.605 503.605;"
   xml:space="preserve"
   inkscape:version="0.91 r13725"
   sodipodi:docname="ARROWHEAD_RJ.svg"><metadata
   id="metadata7218"><rdf:RDF><cc:Work
       rdf:about=""><dc:format>image/svg+xml</dc:format><dc:type
         rdf:resource="http://purl.org/dc/dcmitype/StillImage" /></cc:Work></rdf:RDF></metadata><defs
   id="defs7216" /><sodipodi:namedview
   pagecolor="#ffffff"
   bordercolor="#666666"
   borderopacity="1"
   objecttolerance="10"
   gridtolerance="10"
   guidetolerance="10"
   inkscape:pageopacity="0"
   inkscape:pageshadow="2"
   inkscape:window-width="1334"
   inkscape:window-height="804"
   id="namedview7214"
   showgrid="false"
   inkscape:zoom="0.46862123"
   inkscape:cx="251.80251"
   inkscape:cy="251.80251"
   inkscape:window-x="0"
   inkscape:window-y="13"
   inkscape:window-maximized="0"
   inkscape:current-layer="Layer_1" />
<g
   id="g7172"
   style="fill:#000000;fill-opacity:1">
	<g
   id="g7174"
   style="fill:#000000;fill-opacity:1">
		<g
   id="g7176"
   style="fill:#000000;fill-opacity:1">
			<path
   d="M327.343,285.375v-83.934c0-4.636-3.758-8.393-8.393-8.393h-25.18c0-4.636-3.758-8.393-8.393-8.393h-67.148     c-4.636,0-8.393,3.758-8.393,8.393h-25.18c-4.636,0-8.393,3.758-8.393,8.393v83.934c-4.636,0-8.393,3.758-8.393,8.393v92.328     c0,0.837,0.125,1.669,0.371,2.468l2.572,8.36c0.011,0.038,0.023,0.076,0.035,0.113l10.282,33.416     c0.02,0.066,0.039,0.132,0.061,0.197l10.302,33.482c0,0,0,0,0,0l10.322,33.546c1.084,3.522,4.338,5.925,8.022,5.925h83.934     c3.685,0,6.939-2.403,8.022-5.925l20.62-67.014c0.025-0.076,0.048-0.152,0.07-0.228l12.884-41.872     c0.246-0.8,0.371-1.632,0.371-2.468v-92.328C335.737,289.133,331.979,285.375,327.343,285.375z M310.557,209.834v75.541H293.77     h-16.787v-16.787h8.393c4.636,0,8.393-3.758,8.393-8.393v-50.361H310.557z M235.016,302.162h33.574h15.73     c-3.726,14.483-16.868,25.18-32.517,25.18s-28.791-10.697-32.517-25.18H235.016z M276.983,201.441v50.361h-8.393     c-4.636,0-8.393,3.758-8.393,8.393v25.18h-16.787v-25.18c0-4.636-3.758-8.393-8.393-8.393h-8.393v-50.361H276.983z      M193.048,209.834h16.787v50.361c0,4.636,3.758,8.393,8.393,8.393h8.393v16.787h-16.787h-16.787V209.834z M216.034,486.818     l-5.165-16.787h15.749c4.636,0,8.393-3.758,8.393-8.393s-3.758-8.393-8.393-8.393h-20.914l-5.165-16.787h26.084     c4.636,0,8.393-3.758,8.393-8.393s-3.758-8.393-8.393-8.393h-31.249l-5.165-16.787h36.41c4.636,0,8.393-3.758,8.393-8.393     s-3.758-8.393-8.393-8.393h-41.576l-0.388-1.262V369.31h41.967c4.636,0,8.393-3.758,8.393-8.393c0-4.636-3.758-8.393-8.393-8.393     h-41.967v-50.361h17.496c3.997,23.819,24.695,41.967,49.651,41.967s45.655-18.148,49.651-41.967h17.496v50.361h-41.967     c-4.636,0-8.393,3.758-8.393,8.393c0,4.636,3.758,8.393,8.393,8.393h41.967v15.525l-0.388,1.262h-41.579     c-4.636,0-8.393,3.758-8.393,8.393s3.758,8.393,8.393,8.393h36.414l-5.165,16.787h-31.248c-4.636,0-8.393,3.758-8.393,8.393     s3.758,8.393,8.393,8.393h26.083l-5.165,16.787h-20.918c-4.636,0-8.393,3.758-8.393,8.393s3.758,8.393,8.393,8.393h15.753     l-5.165,16.787H216.034z"
   id="path7178"
   style="fill:#000000;fill-opacity:1" />
			<path
   d="M176.261,109.113h16.787v8.393c0,4.636,3.758,8.393,8.393,8.393h16.787v8.393c0,4.636,3.758,8.393,8.393,8.393h50.361     c4.636,0,8.393-3.758,8.393-8.393V125.9h16.787c4.636,0,8.393-3.758,8.393-8.393v-8.393h16.787c4.636,0,8.393-3.758,8.393-8.393     V33.572c0-4.636-3.758-8.393-8.393-8.393H176.261c-4.636,0-8.393,3.758-8.393,8.393v67.148     C167.868,105.355,171.626,109.113,176.261,109.113z M184.655,41.966h8.393v8.393c0,4.636,3.758,8.393,8.393,8.393     s8.393-3.758,8.393-8.393v-8.393h8.393v8.393c0,4.636,3.758,8.393,8.393,8.393c4.636,0,8.393-3.758,8.393-8.393v-8.393h8.393     v8.393c0,4.636,3.758,8.393,8.393,8.393c4.636,0,8.393-3.758,8.393-8.393v-8.393h8.393v8.393c0,4.636,3.758,8.393,8.393,8.393     c4.636,0,8.393-3.758,8.393-8.393v-8.393h8.393v8.393c0,4.636,3.758,8.393,8.393,8.393s8.393-3.758,8.393-8.393v-8.393h8.393     v50.361h-16.787c-4.636,0-8.393,3.758-8.393,8.393v8.393h-16.787c-4.636,0-8.393,3.758-8.393,8.393v8.393h-33.574v-8.393     c0-4.636-3.758-8.393-8.393-8.393h-16.787v-8.393c0-4.636-3.758-8.393-8.393-8.393h-16.787V41.966z"
   id="path7180"
   style="fill:#000000;fill-opacity:1" />
			<path
   d="M352.524,0H151.081c-4.636,0-8.393,3.758-8.393,8.393v151.082c0,4.636,3.758,8.393,8.393,8.393h201.443     c4.636,0,8.393-3.758,8.393-8.393V8.393C360.917,3.758,357.159,0,352.524,0z M344.13,151.082H159.475V16.787H344.13V151.082z"
   id="path7182"
   style="fill:#000000;fill-opacity:1" />
		</g>
	</g>
</g>
<g
   id="g7184">
</g>
<g
   id="g7186">
</g>
<g
   id="g7188">
</g>
<g
   id="g7190">
</g>
<g
   id="g7192">
</g>
<g
   id="g7194">
</g>
<g
   id="g7196">
</g>
<g
   id="g7198">
</g>
<g
   id="g7200">
</g>
<g
   id="g7202">
</g>
<g
   id="g7204">
</g>
<g
   id="g7206">
</g>
<g
   id="g7208">
</g>
<g
   id="g7210">
</g>
<g
   id="g7212">
</g>
</svg>