<?xml version="1.0" encoding="iso-8859-1"?>
<!-- Generator: Adobe Illustrator 16.0.0, SVG Export Plug-In . SVG Version: 6.00 Build 0)  -->
<!DOCTYPE svg PUBLIC "-//W3C//DTD SVG 1.1//EN" "http://www.w3.org/Graphics/SVG/1.1/DTD/svg11.dtd">
<svg version="1.1" id="Capa_1" xmlns="http://www.w3.org/2000/svg" xmlns:xlink="http://www.w3.org/1999/xlink" x="0px" y="0px"
	 width="410px" height="410px" viewBox="0 0 410 410" style="enable-background:new 0 0 410 410;" xml:space="preserve">
<g>
	<g>
		<g>
			<circle cx="205" cy="304.873" r="47.05"/>
			<path d="M205,153.887c-57.634,0-109.614,34.209-132.423,87.155c-5.607,13.018,0.399,28.114,13.415,33.722
				c13.018,5.608,28.115-0.396,33.722-13.414c14.692-34.1,48.169-56.136,85.286-56.136s70.594,22.036,85.286,56.136
				c4.182,9.707,13.641,15.517,23.581,15.517c3.389,0,6.834-0.674,10.142-2.103c13.019-5.606,19.022-20.704,13.416-33.722
				C314.614,188.096,262.634,153.887,205,153.887z"/>
			<path d="M405.797,166.646C361.235,98.664,286.17,58.078,205,58.078S48.765,98.664,4.203,166.646
				c-7.771,11.854-4.459,27.761,7.394,35.532c4.338,2.844,9.219,4.203,14.045,4.203c8.362,0,16.561-4.081,21.487-11.598
				c35.044-53.461,94.06-85.38,157.871-85.38c63.811,0,122.827,31.918,157.871,85.379c7.77,11.853,23.678,15.166,35.533,7.395
				C410.256,194.407,413.567,178.5,405.797,166.646z"/>
		</g>
	</g>
</g>
<g>
</g>
<g>
</g>
<g>
</g>
<g>
</g>
<g>
</g>
<g>
</g>
<g>
</g>
<g>
</g>
<g>
</g>
<g>
</g>
<g>
</g>
<g>
</g>
<g>
</g>
<g>
</g>
<g>
</g>
</svg>
