<?xml version="1.0" encoding="UTF-8" standalone="no"?>
<!-- Generator: Adobe Illustrator 16.0.0, SVG Export Plug-In . SVG Version: 6.00 Build 0)  -->

<svg
   xmlns:dc="http://purl.org/dc/elements/1.1/"
   xmlns:cc="http://creativecommons.org/ns#"
   xmlns:rdf="http://www.w3.org/1999/02/22-rdf-syntax-ns#"
   xmlns:svg="http://www.w3.org/2000/svg"
   xmlns="http://www.w3.org/2000/svg"
   xmlns:sodipodi="http://sodipodi.sourceforge.net/DTD/sodipodi-0.dtd"
   xmlns:inkscape="http://www.inkscape.org/namespaces/inkscape"
   version="1.1"
   id="Capa_1"
   x="0px"
   y="0px"
   width="410px"
   height="410px"
   viewBox="0 0 410 410"
   style="enable-background:new 0 0 410 410;"
   xml:space="preserve"
   inkscape:version="0.91 r13725"
   sodipodi:docname="ARROWHEAD_WIFI.svg"><metadata
   id="metadata7807"><rdf:RDF><cc:Work
       rdf:about=""><dc:format>image/svg+xml</dc:format><dc:type
         rdf:resource="http://purl.org/dc/dcmitype/StillImage" /></cc:Work></rdf:RDF></metadata><defs
   id="defs7805" /><sodipodi:namedview
   pagecolor="#ffffff"
   bordercolor="#666666"
   borderopacity="1"
   objecttolerance="10"
   gridtolerance="10"
   guidetolerance="10"
   inkscape:pageopacity="0"
   inkscape:pageshadow="2"
   inkscape:window-width="1458"
   inkscape:window-height="917"
   id="namedview7803"
   showgrid="false"
   inkscape:zoom="0.57560976"
   inkscape:cx="205"
   inkscape:cy="205"
   inkscape:window-x="0"
   inkscape:window-y="13"
   inkscape:window-maximized="0"
   inkscape:current-layer="Capa_1" />
<g
   id="g7761"
   style="fill:#000000;fill-opacity:1">
	<g
   id="g7763"
   style="fill:#000000;fill-opacity:1">
		<g
   id="g7765"
   style="fill:#000000;fill-opacity:1">
			<circle
   cx="205"
   cy="304.873"
   r="47.05"
   id="circle7767"
   style="fill:#000000;fill-opacity:1" />
			<path
   d="M205,153.887c-57.634,0-109.614,34.209-132.423,87.155c-5.607,13.018,0.399,28.114,13.415,33.722     c13.018,5.608,28.115-0.396,33.722-13.414c14.692-34.1,48.169-56.136,85.286-56.136s70.594,22.036,85.286,56.136     c4.182,9.707,13.641,15.517,23.581,15.517c3.389,0,6.834-0.674,10.142-2.103c13.019-5.606,19.022-20.704,13.416-33.722     C314.614,188.096,262.634,153.887,205,153.887z"
   id="path7769"
   style="fill:#000000;fill-opacity:1" />
			<path
   d="M405.797,166.646C361.235,98.664,286.17,58.078,205,58.078S48.765,98.664,4.203,166.646     c-7.771,11.854-4.459,27.761,7.394,35.532c4.338,2.844,9.219,4.203,14.045,4.203c8.362,0,16.561-4.081,21.487-11.598     c35.044-53.461,94.06-85.38,157.871-85.38c63.811,0,122.827,31.918,157.871,85.379c7.77,11.853,23.678,15.166,35.533,7.395     C410.256,194.407,413.567,178.5,405.797,166.646z"
   id="path7771"
   style="fill:#000000;fill-opacity:1" />
		</g>
	</g>
</g>
<g
   id="g7773">
</g>
<g
   id="g7775">
</g>
<g
   id="g7777">
</g>
<g
   id="g7779">
</g>
<g
   id="g7781">
</g>
<g
   id="g7783">
</g>
<g
   id="g7785">
</g>
<g
   id="g7787">
</g>
<g
   id="g7789">
</g>
<g
   id="g7791">
</g>
<g
   id="g7793">
</g>
<g
   id="g7795">
</g>
<g
   id="g7797">
</g>
<g
   id="g7799">
</g>
<g
   id="g7801">
</g>
</svg>