<?xml version="1.0" encoding="UTF-8" standalone="no"?>
<svg
   xmlns:dc="http://purl.org/dc/elements/1.1/"
   xmlns:cc="http://creativecommons.org/ns#"
   xmlns:rdf="http://www.w3.org/1999/02/22-rdf-syntax-ns#"
   xmlns:svg="http://www.w3.org/2000/svg"
   xmlns="http://www.w3.org/2000/svg"
   xmlns:sodipodi="http://sodipodi.sourceforge.net/DTD/sodipodi-0.dtd"
   xmlns:inkscape="http://www.inkscape.org/namespaces/inkscape"
   enable-background="new 0 0 24 24"
   height="24px"
   viewBox="0 0 24 24"
   width="24px"
   fill="#455A64"
   id="svg8349"
   version="1.1"
   inkscape:version="0.91 r13725"
   sodipodi:docname="BACKPACK.svg">
  <metadata
     id="metadata8367">
    <rdf:RDF>
      <cc:Work
         rdf:about="">
        <dc:format>image/svg+xml</dc:format>
        <dc:type
           rdf:resource="http://purl.org/dc/dcmitype/StillImage" />
      </cc:Work>
    </rdf:RDF>
  </metadata>
  <defs
     id="defs8365" />
  <sodipodi:namedview
     pagecolor="#ffffff"
     bordercolor="#666666"
     borderopacity="1"
     objecttolerance="10"
     gridtolerance="10"
     guidetolerance="10"
     inkscape:pageopacity="0"
     inkscape:pageshadow="2"
     inkscape:window-width="1441"
     inkscape:window-height="875"
     id="namedview8363"
     showgrid="false"
     inkscape:zoom="9.8333333"
     inkscape:cx="12"
     inkscape:cy="12"
     inkscape:window-x="0"
     inkscape:window-y="13"
     inkscape:window-maximized="0"
     inkscape:current-layer="svg8349" />
  <g
     id="g8351">
    <rect
       fill="none"
       height="24"
       width="24"
       id="rect8353" />
  </g>
  <g
     id="g8355"
     style="fill:#000000;fill-opacity:1">
    <g
       id="g8357"
       style="fill:#000000;fill-opacity:1" />
    <g
       id="g8359"
       style="fill:#000000;fill-opacity:1">
      <path
         d="M13.97,5.34C13.98,5.23,14,5.12,14,5c0-1.1-0.9-2-2-2s-2,0.9-2,2c0,0.12,0.02,0.23,0.03,0.34C7.69,6.15,6,8.38,6,11v8 c0,1.1,0.9,2,2,2h8c1.1,0,2-0.9,2-2v-8C18,8.38,16.31,6.15,13.97,5.34z M11,5c0-0.55,0.45-1,1-1s1,0.45,1,1 c0,0.03-0.01,0.06-0.02,0.09C12.66,5.03,12.34,5,12,5s-0.66,0.03-0.98,0.09C11.01,5.06,11,5.03,11,5z M16,13v1v0.5 c0,0.28-0.22,0.5-0.5,0.5S15,14.78,15,14.5V14v-1H8v-1h7h1V13z"
         id="path8361"
         style="fill:#000000;fill-opacity:1" />
    </g>
  </g>
</svg>
