<?xml version="1.0" encoding="UTF-8" standalone="no"?>
<!-- Created with Inkscape (http://www.inkscape.org/) -->

<svg
   xmlns:dc="http://purl.org/dc/elements/1.1/"
   xmlns:cc="http://creativecommons.org/ns#"
   xmlns:rdf="http://www.w3.org/1999/02/22-rdf-syntax-ns#"
   xmlns:svg="http://www.w3.org/2000/svg"
   xmlns="http://www.w3.org/2000/svg"
   xmlns:sodipodi="http://sodipodi.sourceforge.net/DTD/sodipodi-0.dtd"
   xmlns:inkscape="http://www.inkscape.org/namespaces/inkscape"
   width="18.233631mm"
   height="22.866806mm"
   viewBox="0 0 18.233631 22.866806"
   version="1.1"
   id="svg10237"
   inkscape:version="0.91 r13725"
   sodipodi:docname="DHT.svg">
  <defs
     id="defs10231" />
  <sodipodi:namedview
     id="base"
     pagecolor="#ffffff"
     bordercolor="#666666"
     borderopacity="1.0"
     inkscape:pageopacity="0.0"
     inkscape:pageshadow="2"
     inkscape:zoom="7.919596"
     inkscape:cx="34.06735"
     inkscape:cy="36.651099"
     inkscape:document-units="mm"
     inkscape:current-layer="layer1"
     showgrid="false"
     fit-margin-top="0"
     fit-margin-left="0"
     fit-margin-right="0"
     fit-margin-bottom="0"
     inkscape:window-width="1920"
     inkscape:window-height="1027"
     inkscape:window-x="1912"
     inkscape:window-y="-8"
     inkscape:window-maximized="1" />
  <metadata
     id="metadata10234">
    <rdf:RDF>
      <cc:Work
         rdf:about="">
        <dc:format>image/svg+xml</dc:format>
        <dc:type
           rdf:resource="http://purl.org/dc/dcmitype/StillImage" />
        <dc:title />
      </cc:Work>
    </rdf:RDF>
  </metadata>
  <g
     inkscape:label="Calque 1"
     inkscape:groupmode="layer"
     id="layer1"
     transform="translate(8.3608635,-79.947546)">
    <path
       style="opacity:1;fill:#000000;fill-opacity:1;stroke:none;stroke-width:5.49913979;stroke-linecap:round;stroke-miterlimit:4;stroke-dasharray:none;stroke-opacity:1"
       d="M 3.5136719 0.013671875 C 1.6106238 0.013671875 0.078125 1.5442175 0.078125 3.4472656 L 0.078125 77.589844 C 0.078125 79.492892 1.6106238 81.023438 3.5136719 81.023438 L 61.171875 81.023438 C 63.074923 81.023438 64.607422 79.492892 64.607422 77.589844 L 64.607422 3.4472656 C 64.607422 1.5442175 63.074923 0.013671875 61.171875 0.013671875 L 3.5136719 0.013671875 z M 29.548828 5.5507812 L 34.298828 5.5507812 L 34.298828 13.001953 L 29.548828 13.001953 L 29.548828 5.5507812 z M 18.435547 5.609375 L 23.185547 5.609375 L 23.185547 13.001953 L 18.435547 13.001953 L 18.435547 5.609375 z M 39.849609 5.6464844 L 42.185547 5.6464844 L 44.521484 5.6464844 L 44.521484 9.3085938 L 44.521484 12.96875 L 42.185547 12.96875 L 39.849609 12.96875 L 39.849609 9.3085938 L 39.849609 5.6464844 z M 2.6542969 19.111328 L 12.580078 19.111328 L 12.580078 24.734375 L 2.6542969 24.734375 L 2.6542969 19.111328 z M 18.4375 19.111328 L 23.341797 19.111328 L 23.341797 24.734375 L 18.4375 24.734375 L 18.4375 19.111328 z M 29.470703 19.111328 L 34.375 19.111328 L 34.375 24.734375 L 29.470703 24.734375 L 29.470703 19.111328 z M 39.667969 19.111328 L 44.572266 19.111328 L 44.572266 24.734375 L 39.667969 24.734375 L 39.667969 19.111328 z M 50.841797 19.111328 L 61.427734 19.111328 L 61.427734 24.734375 L 50.841797 24.734375 L 50.841797 19.111328 z M 29.470703 30.005859 L 34.375 30.005859 L 34.375 35.628906 L 29.470703 35.628906 L 29.470703 30.005859 z M 39.667969 30.214844 L 44.572266 30.214844 L 44.572266 35.839844 L 39.667969 35.839844 L 39.667969 30.214844 z M 2.6542969 30.285156 L 12.580078 30.285156 L 12.580078 35.910156 L 2.6542969 35.910156 L 2.6542969 30.285156 z M 18.4375 30.285156 L 23.341797 30.285156 L 23.341797 35.910156 L 18.4375 35.910156 L 18.4375 30.285156 z M 50.841797 30.285156 L 61.427734 30.285156 L 61.427734 35.910156 L 50.841797 35.910156 L 50.841797 30.285156 z M 29.470703 39.503906 L 34.375 39.503906 L 34.375 45.126953 L 29.470703 45.126953 L 29.470703 39.503906 z M 39.667969 39.712891 L 44.572266 39.712891 L 44.572266 45.337891 L 39.667969 45.337891 L 39.667969 39.712891 z M 2.6542969 39.783203 L 12.580078 39.783203 L 12.580078 45.40625 L 2.6542969 45.40625 L 2.6542969 39.783203 z M 18.4375 39.783203 L 23.341797 39.783203 L 23.341797 45.40625 L 18.4375 45.40625 L 18.4375 39.783203 z M 50.841797 39.783203 L 61.427734 39.783203 L 61.427734 45.40625 L 50.841797 45.40625 L 50.841797 39.783203 z M 29.470703 49.560547 L 34.375 49.560547 L 34.375 55.183594 L 29.470703 55.183594 L 29.470703 49.560547 z M 39.667969 49.769531 L 44.572266 49.769531 L 44.572266 55.394531 L 39.667969 55.394531 L 39.667969 49.769531 z M 2.6542969 49.839844 L 12.580078 49.839844 L 12.580078 55.462891 L 2.6542969 55.462891 L 2.6542969 49.839844 z M 18.4375 49.839844 L 23.341797 49.839844 L 23.341797 55.462891 L 18.4375 55.462891 L 18.4375 49.839844 z M 50.841797 49.839844 L 61.427734 49.839844 L 61.427734 55.462891 L 50.841797 55.462891 L 50.841797 49.839844 z M 29.75 59.896484 L 34.654297 59.896484 L 34.654297 65.519531 L 29.75 65.519531 L 29.75 59.896484 z M 39.947266 60.105469 L 44.851562 60.105469 L 44.851562 65.730469 L 39.947266 65.730469 L 39.947266 60.105469 z M 3.21875 60.175781 L 13.144531 60.175781 L 13.144531 65.798828 L 3.21875 65.798828 L 3.21875 60.175781 z M 18.716797 60.175781 L 23.621094 60.175781 L 23.621094 65.798828 L 18.716797 65.798828 L 18.716797 60.175781 z M 51.445312 60.175781 L 62.03125 60.175781 L 62.03125 65.798828 L 51.445312 65.798828 L 51.445312 60.175781 z "
       transform="matrix(0.28222223,0,0,0.28222222,-8.3608635,79.947546)"
       id="rect3973" />
    <path
       style="opacity:1;fill:#ffffff;fill-opacity:1;stroke:#ff0000;stroke-width:0.00012627;stroke-linejoin:miter;stroke-miterlimit:4;stroke-dasharray:none;stroke-opacity:1"
       d="m 13.113326,85.924191 0,-0.783991 1.069078,0 1.069078,0 0,0.783991 0,0.78399 -1.069078,0 -1.069078,0 0,-0.78399 z"
       id="path3396"
       inkscape:connector-curvature="0" />
  </g>
</svg>
