<?xml version="1.0" encoding="iso-8859-1"?>
<!-- Generator: Adobe Illustrator 19.0.0, SVG Export Plug-In . SVG Version: 6.00 Build 0)  -->
<svg version="1.1" id="Layer_1" xmlns="http://www.w3.org/2000/svg" xmlns:xlink="http://www.w3.org/1999/xlink" x="0px" y="0px"
	 viewBox="0 0 512 512" style="enable-background:new 0 0 512 512;" xml:space="preserve">
<g>
	<g>
		<g>
			<path d="M375.467,221.864c47.053,0,85.333-38.281,85.333-85.333s-38.281-85.333-85.333-85.333s-85.333,38.281-85.333,85.333
				S328.414,221.864,375.467,221.864z M332.8,187.731c-4.71,0-8.533-3.823-8.533-8.533s3.823-8.533,8.533-8.533
				c4.71,0,8.533,3.823,8.533,8.533S337.51,187.731,332.8,187.731z M375.467,204.797c-4.71,0-8.533-3.823-8.533-8.533
				s3.823-8.533,8.533-8.533c4.71,0,8.533,3.823,8.533,8.533S380.177,204.797,375.467,204.797z M418.133,187.731
				c-4.71,0-8.533-3.823-8.533-8.533s3.823-8.533,8.533-8.533s8.533,3.823,8.533,8.533S422.844,187.731,418.133,187.731z
				 M435.2,127.997c4.71,0,8.533,3.823,8.533,8.533s-3.823,8.533-8.533,8.533c-4.71,0-8.533-3.823-8.533-8.533
				S430.49,127.997,435.2,127.997z M418.133,85.331c4.71,0,8.533,3.823,8.533,8.533c0,4.71-3.823,8.533-8.533,8.533
				s-8.533-3.823-8.533-8.533C409.6,89.154,413.423,85.331,418.133,85.331z M375.467,68.264c4.71,0,8.533,3.823,8.533,8.533
				s-3.823,8.533-8.533,8.533c-4.71,0-8.533-3.823-8.533-8.533S370.756,68.264,375.467,68.264z M375.467,102.397
				c18.825,0,34.133,15.309,34.133,34.133s-15.309,34.133-34.133,34.133s-34.133-15.309-34.133-34.133
				S356.642,102.397,375.467,102.397z M332.8,85.331c4.71,0,8.533,3.823,8.533,8.533c0,4.71-3.823,8.533-8.533,8.533
				c-4.71,0-8.533-3.823-8.533-8.533C324.267,89.154,328.09,85.331,332.8,85.331z M307.2,136.531c0-4.71,3.823-8.533,8.533-8.533
				c4.71,0,8.533,3.823,8.533,8.533s-3.823,8.533-8.533,8.533C311.023,145.064,307.2,141.241,307.2,136.531z"/>
			<path d="M375.467,153.597c9.412,0,17.067-7.654,17.067-17.067c0-9.412-7.654-17.067-17.067-17.067s-17.067,7.654-17.067,17.067
				C358.4,145.943,366.054,153.597,375.467,153.597z"/>
			<path d="M375.467,0c-53.53,0-99.831,31.036-122.197,75.989L36.634,292.634c-0.043,0.034-0.051,0.094-0.094,0.137
				C14.362,309.948,0,336.768,0,366.933c0,51.439,41.609,93.303,92.937,93.815l332.279,48.631c5.897,1.664,12.092,2.62,18.517,2.62
				h0.009h0.009c37.632-0.017,68.25-30.635,68.25-68.267v-307.2C512,61.244,450.748,0,375.467,0z M375.467,34.133
				c56.465,0,102.4,45.926,102.4,102.4c0,56.465-45.935,102.4-102.4,102.4s-102.4-45.935-102.4-102.4
				C273.067,80.06,319.002,34.133,375.467,34.133z M93.867,409.6c-23.526,0-42.667-19.14-42.667-42.667
				c0-23.526,19.14-42.667,42.667-42.667c23.526,0,42.667,19.14,42.667,42.667C136.533,390.46,117.393,409.6,93.867,409.6z
				 M443.733,452.267c-4.71,0-8.533-3.823-8.533-8.533c0-4.719,3.823-8.533,8.533-8.533c4.71,0,8.533,3.814,8.533,8.533
				C452.267,448.444,448.444,452.267,443.733,452.267z M494.933,398.729c-12.518-14.225-30.805-23.262-51.2-23.262
				c-37.641,0-68.267,30.626-68.267,68.267c0,16.469,5.862,31.599,15.616,43.401l-253.67-37.12
				c29.875-15.727,50.321-47.044,50.321-83.081c0-51.763-42.112-93.867-93.867-93.867c-5.052,0-9.984,0.512-14.822,1.289
				l162.193-162.193c-1.434,7.919-2.304,16.043-2.304,24.371c0,75.281,61.252,136.533,136.533,136.533
				c51.371,0,96.162-28.553,119.467-70.588V398.729z"/>
			<path d="M93.867,341.331c-14.114,0-25.6,11.486-25.6,25.6s11.486,25.6,25.6,25.6c14.114,0,25.6-11.486,25.6-25.6
				S107.981,341.331,93.867,341.331z"/>
		</g>
	</g>
</g>
<g>
</g>
<g>
</g>
<g>
</g>
<g>
</g>
<g>
</g>
<g>
</g>
<g>
</g>
<g>
</g>
<g>
</g>
<g>
</g>
<g>
</g>
<g>
</g>
<g>
</g>
<g>
</g>
<g>
</g>
</svg>
