<?xml version="1.0" encoding="iso-8859-1"?>
<!-- Generator: Adobe Illustrator 17.1.0, SVG Export Plug-In . SVG Version: 6.00 Build 0)  -->
<!DOCTYPE svg PUBLIC "-//W3C//DTD SVG 1.1//EN" "http://www.w3.org/Graphics/SVG/1.1/DTD/svg11.dtd">
<svg version="1.1" id="Capa_1" xmlns="http://www.w3.org/2000/svg" xmlns:xlink="http://www.w3.org/1999/xlink" x="0px" y="0px"
	 viewBox="0 0 423.117 423.117" style="enable-background:new 0 0 423.117 423.117;" xml:space="preserve">
<g>
	<path d="M367.698,152.124c6.803,0,13.197-2.648,18.007-7.458c4.811-4.811,7.46-11.205,7.46-18.008s-2.649-13.197-7.46-18.007
		l-25.209-25.21c-4.81-4.811-11.204-7.459-18.007-7.459s-13.197,2.648-18.007,7.459c-9.13,9.129-9.858,23.52-2.199,33.497
		l-5.997,5.62c-21.426-17.122-47.094-29.146-75.156-34.201V75.542c20.176-0.756,36.359-17.396,36.359-37.753
		C277.489,16.952,260.537,0,239.7,0h-57.117c-20.837,0-37.789,16.952-37.789,37.789c0,20.357,16.183,36.997,36.359,37.753v12.815
		c-28.308,5.1-54.178,17.291-75.716,34.652l-5.162-5.363c8.251-9.993,7.706-24.857-1.64-34.205
		c-4.81-4.811-11.206-7.459-18.008-7.459s-13.197,2.648-18.007,7.459l-25.209,25.21c-4.81,4.81-7.459,11.204-7.459,18.007
		s2.649,13.197,7.459,18.007c4.81,4.811,11.206,7.459,18.008,7.459c5.755,0,11.216-1.903,15.675-5.4l5.625,5.845
		c-21.508,28.32-34.293,63.61-34.293,101.834c0,93.029,75.686,168.715,168.716,168.715c93.03,0,168.715-75.686,168.715-168.715
		c0-38.49-12.965-74.004-34.745-102.424l6.211-5.821C355.905,150.018,361.638,152.124,367.698,152.124z M349.857,254.402
		c0,76.487-62.228,138.715-138.715,138.715c-76.488,0-138.716-62.228-138.716-138.715c0-76.488,62.228-138.716,138.716-138.716
		C287.63,115.687,349.857,177.914,349.857,254.402z"/>
	<path d="M211.142,147.44c-58.979,0-106.962,47.983-106.962,106.962s47.983,106.961,106.962,106.961s106.961-47.982,106.961-106.961
		S270.121,147.44,211.142,147.44z M267.975,224.569l-35.322,30.934c-0.261,5.146-2.333,10.217-6.263,14.147
		c-8.421,8.421-22.075,8.421-30.496,0c-8.421-8.422-8.421-22.075,0-30.496c4.659-4.659,10.918-6.729,17.008-6.232l35.307-30.921
		c6.233-5.457,15.708-4.831,21.167,1.401C274.834,209.635,274.206,219.111,267.975,224.569z"/>
</g>
<g>
</g>
<g>
</g>
<g>
</g>
<g>
</g>
<g>
</g>
<g>
</g>
<g>
</g>
<g>
</g>
<g>
</g>
<g>
</g>
<g>
</g>
<g>
</g>
<g>
</g>
<g>
</g>
<g>
</g>
</svg>
