<?xml version="1.0" standalone="no"?>
<!DOCTYPE svg PUBLIC "-//W3C//DTD SVG 20010904//EN"
 "http://www.w3.org/TR/2001/REC-SVG-20010904/DTD/svg10.dtd">
<svg version="1.0" xmlns="http://www.w3.org/2000/svg"
 width="784.000000pt" height="622.000000pt" viewBox="0 0 784.000000 622.000000"
 preserveAspectRatio="xMidYMid meet">
<metadata>
Created by potrace 1.16, written by Peter Selinger 2001-2019
</metadata>
<g transform="translate(0.000000,622.000000) scale(0.100000,-0.100000)"
fill="#000000" stroke="none">
<path d="M2080 6192 c-21 -22 -30 -42 -35 -83 -3 -30 -5 -837 -3 -1794 l3
-1740 21 -46 c30 -63 79 -116 138 -147 50 -27 54 -27 241 -27 173 0 194 2 236
21 55 26 111 79 141 137 23 41 23 48 28 502 5 415 7 463 23 492 19 36 52 49
95 38 38 -9 1314 -1283 1338 -1337 14 -31 15 -43 6 -64 -27 -57 98 -54 -2126
-54 -1428 0 -2060 -3 -2095 -11 -91 -19 -114 -80 -62 -160 16 -24 440 -454
942 -956 772 -770 920 -913 952 -922 44 -11 73 -3 102 29 19 21 20 40 25 504
5 462 6 483 26 527 31 66 78 114 142 146 l57 28 1395 0 1395 0 95 -32 c182
-63 217 -88 510 -378 250 -247 270 -264 355 -307 50 -25 122 -57 160 -69 l70
-24 705 -3 c388 -2 725 0 749 3 81 12 112 74 75 148 -21 41 -5514 5540 -5573
5578 -57 37 -94 37 -131 1z"/>
</g>
</svg>
