<?xml version="1.0" encoding="UTF-8" standalone="no"?>
<!-- Generator: Adobe Illustrator 25.2.1, SVG Export Plug-In . SVG Version: 6.00 Build 0)  -->

<svg
   xmlns:dc="http://purl.org/dc/elements/1.1/"
   xmlns:cc="http://creativecommons.org/ns#"
   xmlns:rdf="http://www.w3.org/1999/02/22-rdf-syntax-ns#"
   xmlns:svg="http://www.w3.org/2000/svg"
   xmlns="http://www.w3.org/2000/svg"
   xmlns:sodipodi="http://sodipodi.sourceforge.net/DTD/sodipodi-0.dtd"
   xmlns:inkscape="http://www.inkscape.org/namespaces/inkscape"
   version="1.1"
   id="Layer_2"
   x="0px"
   y="0px"
   viewBox="0 0 238.26826 199.39999"
   xml:space="preserve"
   inkscape:version="0.91 r13725"
   sodipodi:docname="SEEED_GROVE.svg"
   width="238.26826"
   height="199.39999"><metadata
   id="metadata33"><rdf:RDF><cc:Work
       rdf:about=""><dc:format>image/svg+xml</dc:format><dc:type
         rdf:resource="http://purl.org/dc/dcmitype/StillImage" /><dc:title></dc:title></cc:Work></rdf:RDF></metadata><defs
   id="defs31">
	
	
	
	
	
	
	
	
	
	
	
</defs><sodipodi:namedview
   pagecolor="#ffffff"
   bordercolor="#666666"
   borderopacity="1"
   objecttolerance="10"
   gridtolerance="10"
   guidetolerance="10"
   inkscape:pageopacity="0"
   inkscape:pageshadow="2"
   inkscape:window-width="1920"
   inkscape:window-height="1027"
   id="namedview29"
   showgrid="false"
   fit-margin-top="0"
   fit-margin-left="0"
   fit-margin-right="0"
   fit-margin-bottom="0"
   inkscape:zoom="1.84375"
   inkscape:cx="174.8294"
   inkscape:cy="9.6605148"
   inkscape:window-x="1912"
   inkscape:window-y="-8"
   inkscape:window-maximized="1"
   inkscape:current-layer="Layer_2" />
<style
   type="text/css"
   id="style3">
	.st0{fill:#90C320;}
	.st1{fill:#00394A;stroke:#132344;stroke-miterlimit:10;}
</style>
<g
   id="g4172"
   transform="translate(-138.76587,-98.3)"><path
     class="st0"
     d="M 242.1,297.7 C 126.3,285.1 130.6,171.9 148,143.3 c 0.6,46 35.4,124 94.1,154.4 z"
     id="path7"
     inkscape:connector-curvature="0"
     style="fill:#90c320" /><path
     class="st0"
     d="M 242.1,297.7 C 126.3,285.1 130.6,171.9 148,143.3 c 0.6,46 35.4,124 94.1,154.4 z"
     id="path9"
     inkscape:connector-curvature="0"
     style="fill:#90c320" /><path
     class="st0"
     d="m 244.9,279.1 c -92.4,-71 -29.7,-165.4 0,-180.8 -23.5,39.6 -34.4,124.3 0,180.8 z"
     id="path11"
     inkscape:connector-curvature="0"
     style="fill:#90c320" /><path
     class="st0"
     d="m 273.7,297.7 c 115.8,-12.5 111.5,-125.8 94.1,-154.3 -0.6,45.9 -35.4,123.9 -94.1,154.3 z"
     id="path13"
     inkscape:connector-curvature="0"
     style="fill:#90c320" /><path
     class="st0"
     d="m 273.7,297.7 c 115.8,-12.5 111.5,-125.8 94.1,-154.3 -0.6,45.9 -35.4,123.9 -94.1,154.3 z"
     id="path15"
     inkscape:connector-curvature="0"
     style="fill:#90c320" /><path
     class="st0"
     d="m 271,279.1 c 92.4,-71 29.7,-165.4 0,-180.8 23.4,39.6 34.3,124.3 0,180.8 z"
     id="path17"
     inkscape:connector-curvature="0"
     style="fill:#90c320" /></g>
</svg>