<?xml version="1.0" encoding="UTF-8" standalone="no"?>
<!-- Created with Inkscape (http://www.inkscape.org/) -->
<svg id="svg5560" xmlns:rdf="http://www.w3.org/1999/02/22-rdf-syntax-ns#" xmlns="http://www.w3.org/2000/svg" height="252.34mm" width="151.03mm" version="1.1" xmlns:cc="http://creativecommons.org/ns#" xmlns:dc="http://purl.org/dc/elements/1.1/" viewBox="0 0 535.15647 894.135">
 <metadata id="metadata5565">
  <rdf:RDF>
   <cc:Work rdf:about="">
    <dc:format>image/svg+xml</dc:format>
    <dc:type rdf:resource="http://purl.org/dc/dcmitype/StillImage"/>
    <dc:title/>
   </cc:Work>
  </rdf:RDF>
 </metadata>
 <g id="layer1" transform="translate(-659.49 -986.85)">
  <g id="g4142">
   <rect id="rect5967" height="894.14" width="535.16" y="986.85" x="659.49"/>
   <path id="path5709" d="m178.52 60s-30.59 5.557-44.18 12.621c-12.6 6.555-33.13 26.824-33.13 26.824l104.14 48.915 145.16-1.58 55.22-80.469-227.21-6.311zm249.3 17.355l-58.38 86.785-9.47 219.32 80.47 53.64 20.52-20.51 14.2-277.7s-7.29-24.26-17.63-36.46c-6.8-8.03-29.71-25.075-29.71-25.075zm-343.97 45.765l-18.932 290.32 28.619 17.57 75.519-45.97 14.2-216.17-99.406-45.75zm7.945 351.07l-26.221 18.4-5.578 287.85 100.97-47.97 8.92-220.35-78.091-37.93zm359.69 3.93l-97.83 34.72-7.89 225.63 52.07 83.62s31.57-18.32 41.03-33.13c9.33-14.63 12.62-50.49 12.62-50.49l11.04-244.57-11.04-15.78zm-127.01 274.97l-148.59 0.5-101.57 49.03c0.002 0 17.693 15.28 28 20.54 9.68 4.94 31.04 9.98 31.04 9.98l243.15 0.99-52.03-81.04z" fill-rule="evenodd" transform="translate(659.49 986.85)" fill="#ff4a00"/>
   <path id="path5715" d="m851.79 1387.7-83.625 50.49 69.425 34.714 157.78 7.8896 92.685-33.544-87.922-58.707z" fill-rule="evenodd" fill="#141414"/>
  </g>
 </g>
</svg>
