<svg width="216.54000000000002" height="114.99" xmlns="http://www.w3.org/2000/svg">

 <title>Asset 1</title>
 <g>
  <title>Layer 1</title>
  <g id="svg_19">
   <path id="svg_1" fill="#03234b" d="m214.75816,-0.40816l-156.73,0a29,29 0 0 0 -26.55,17.27l-30.94,74.53a1.62,1.62 0 0 0 1.51,2.25l70.77,0c5,0 7.22,-4.84 3.3,-8.71l-25.99,-24.34c-13.66,-13.39 -7.8,-44.44 20.57,-44.44l138.55,0a1.64,1.64 0 0 0 1.55,-1.09l5.48,-13.25a1.59,1.59 0 0 0 0.12,-0.62a1.64,1.64 0 0 0 -1.64,-1.6z" class="cls-1"/>
   <path id="svg_2" fill="#03234b" d="m199.13816,37.53184l-26.61,0a4.3,4.3 0 0 0 -4,2.63l-29.81,72a1.58,1.58 0 0 0 -0.19,0.75a1.62,1.62 0 0 0 1.63,1.61l9.93,0a29,29 0 0 0 26.81,-17.67l0,0l23.69,-57.19a1.73,1.73 0 0 0 0.12,-0.6a1.6,1.6 0 0 0 -1.57,-1.53z" class="cls-1"/>
   <path id="svg_3" fill="#03234b" d="m146.83816,39.14184a1.63,1.63 0 0 0 -1.64,-1.62l-75.44,0c-4.09,0 -7.67,5 -3.34,9l24.92,23.21s10.09,9.3 7.93,22.61c-1.86,11.72 -9.86,18.89 -15.69,21.47l0,0a0.4,0.4 0 0 0 0.18,0.77l29.05,0a4.29,4.29 0 0 0 4,-2.63l29.9,-72.24a1.25,1.25 0 0 0 0.13,-0.57z" class="cls-1"/>
  </g>
 </g>
</svg>