<svg xmlns="http://www.w3.org/2000/svg" width="120.002" height="101.663" viewBox="0 0 120.002 101.663"><g fill="#fff"><path d="M4.518 90.148H6.73l4.508 11.4H9.163L7.885 98.56H3.233l-1.27 2.987H0l4.518-11.4zm2.66 6.563l-1.62-4.227-1.626 4.228H7.18zM22.44 93.416c0 .36-.043.706-.136 1.033-.087.332-.226.645-.417.95-.185.305-.45.577-.775.82-.328.236-.717.426-1.167.56l3.44 4.768h-2.628l-3.194-4.426H15.63v4.426h-2.02v-11.4h4.85c.24 0 .464.01.663.02.198.013.443.045.727.096.29.05.545.12.764.208.224.078.453.212.688.378.24.162.44.36.595.577.16.222.29.503.39.845.103.336.154.72.154 1.144zm-6.81-1.412v3.263h1.86c.322 0 .606-.01.85-.032.245-.02.5-.064.762-.134.266-.068.48-.16.646-.276.17-.115.31-.28.418-.49s.166-.456.166-.737c0-1.066-.824-1.592-2.462-1.592h-2.24zM34.867 93.416c0 .36-.042.706-.132 1.033-.09.332-.226.645-.415.95-.19.305-.452.577-.78.82-.33.236-.717.426-1.167.56l3.44 4.768h-2.625l-3.196-4.426h-1.936v4.426h-2.014v-11.4h4.85c.243 0 .46.01.663.02.198.013.44.045.727.096.29.05.542.12.762.208.224.078.452.212.69.378.242.162.438.36.595.577.153.222.283.503.387.845.1.336.15.72.15 1.144zm-6.812-1.412v3.263h1.867c.318 0 .603-.01.85-.032.244-.02.498-.064.76-.134.262-.068.48-.16.647-.276.163-.115.306-.28.412-.49.113-.207.168-.456.168-.737 0-1.066-.82-1.592-2.464-1.592h-2.24zM43.69 90.028c1.16 0 2.195.23 3.097.684.902.452 1.615 1.11 2.132 1.98.516.87.78 1.877.78 3.03 0 1.164-.257 2.197-.762 3.098-.508.904-1.22 1.6-2.142 2.095-.918.5-1.973.748-3.168.748-.785 0-1.532-.115-2.236-.365-.708-.244-1.34-.595-1.9-1.065-.56-.47-1-1.075-1.33-1.823s-.495-1.592-.495-2.538c0-1.163.258-2.197.77-3.092.513-.887 1.224-1.564 2.133-2.04.912-.476 1.95-.712 3.12-.712zm1.055 1.99c-.374-.093-.748-.14-1.133-.14-.388 0-.76.047-1.124.14-.362.097-.713.244-1.045.438-.337.207-.63.457-.88.747-.25.296-.447.66-.602 1.085-.15.43-.223.904-.223 1.426 0 1.232.383 2.225 1.145 2.973.766.757 1.72 1.12 2.866 1.12.48 0 .935-.073 1.382-.23.448-.15.86-.378 1.237-.687.38-.305.688-.72.918-1.246.23-.52.344-1.117.344-1.786 0-.545-.08-1.043-.243-1.495-.16-.453-.374-.826-.635-1.122-.263-.304-.572-.558-.923-.77-.353-.203-.71-.356-1.085-.452zM51.234 90.148h2.132l2.622 8.755 3.297-8.755h1.86l2.707 8.755 3.208-8.755h2.132l-4.366 11.4h-1.93l-2.747-8.724-3.223 8.723h-1.934l-3.76-11.4zM79.736 90.148h2.018v11.4h-2.018v-4.953H73.64v4.952h-2.018v-11.4h2.018v4.588h6.096v-4.587zM85.538 101.548v-11.4h7.993v1.86H87.57v2.736h5.52v1.86h-5.52v3.077h5.963v1.866H85.54zM100.356 90.148h2.216l4.504 11.4h-2.072l-1.273-2.987h-4.655l-1.28 2.987H95.85l4.506-11.4zm2.663 6.563l-1.62-4.227-1.63 4.228h3.25zM113.523 90.148c.715 0 1.375.056 1.984.166.6.115 1.126.263 1.56.462.438.193.83.42 1.173.696.34.272.627.563.84.872.222.31.396.646.544 1.01.144.366.24.722.296 1.072s.083.71.083 1.084c0 .494-.037.97-.12 1.426-.074.457-.222.928-.425 1.398s-.46.896-.78 1.274c-.318.378-.733.71-1.245 1.02-.508.3-1.094.517-1.75.665-.34.073-.71.134-1.126.17-.41.042-.747.065-1.01.07-.27.01-.638.014-1.112.014h-2.954v-11.4h4.043zm.056 1.86H111.5v7.675h1.468c.37 0 .674-.004.913-.018.24-.005.56-.047.95-.11.39-.065.72-.153.998-.27.273-.114.564-.285.86-.52.294-.23.543-.517.737-.845.37-.61.55-1.324.55-2.142 0-.47-.07-.904-.2-1.3-.128-.398-.304-.726-.516-.993-.22-.277-.47-.513-.766-.71-.286-.214-.58-.366-.886-.477-.3-.115-.604-.193-.923-.23-.267-.042-.636-.06-1.106-.06zM34.802.838c-1.46-1.458-2.65-.964-2.65 1.098V46c0 2.063 1.68 3.757 3.744 3.757h2.81c2.062 0 3.753-1.694 3.753-3.757v-9.802c0-2.063 1.19-2.566 2.648-1.098l15.54 15.534c1.458 1.458.964 2.658-1.097 2.658H7.76c-2.058 0-2.554 1.19-1.098 2.648l22.835 22.836c1.463 1.458 2.656.96 2.656-1.104v-10.33c0-2.06 1.683-3.748 3.746-3.748h33.96c2.067 0 4.946 1.195 6.405 2.653l5.23 5.23c1.463 1.462 4.338 2.657 6.406 2.657h16.443c2.066 0 2.56-1.195 1.102-2.658L34.802.838z"/></g></svg>